{"title":"Knuckle","uid":6603412,"size":1347227807,"categoryP":"video","categoryS":"movies","magnet":"?xt=urn:btih:7777cb2c34297cb124ee5c2bacab5f108ccbf338&amp;dn=Knuckle&amp;tr=udp%3A%2F%2Ftracker.openbittorrent.com%3A80&amp;tr=udp%3A%2F%2Fopen.demonii.com%3A1337&amp;tr=udp%3A%2F%2Ftracker.coppersurfer.tk%3A6969&amp;tr=udp%3A%2F%2Fexodus.desync.com%3A6969","seeders":1,"leechers":0,"uploader":"SAFCukO09","files":3,"time":1313310079,"description":"Format : AVI\nFormat/Info : Audio Video Interleave\nFormat profile : OpenDML\nFile size : 1.25 GiB\nDuration : 1h 32mn\nOverall bit rate : 1 936 Kbps\nWriting application : Lavf52.47.0\n\nVideo\nID : 0\nFormat : xvid\nCodec ID : xvid\nDuration : 1h 32mn\nBit rate : 1 794 Kbps\nWidth : 720 pixels\nHeight : 400 pixels\nDisplay aspect ratio : 16:9\nFrame rate : 25.000 fps\nBits/(Pixel*Frame) : 0.249\nStream size : 1.16 GiB (93%)\n\nAudio\nID : 1\nFormat : MPEG Audio\nFormat version : Version 1\nFormat profile : Layer 3\nMode : Joint stereo\nMode extension : MS Stereo\nCodec ID : 55\nCodec ID/Hint : MP3\nDuration : 1h 32mn\nBit rate mode : Constant\nBit rate : 128 Kbps\nChannel(s) : 2 channels\nSampling rate : 44.1 KHz\nCompression mode : Lossy\nStream size : 18.5 MiB (1%)\nAlignment : Aligned on interleaves\nInterleave, duration : 120 ms (2.99 video frames)\nWriting library : LAME3.98.2\n\n\n\n\n\n\n &lt;a href=&quot;\nhttp://www.imdb.com/title/tt1606259/&quot; rel=&quot;nofollow&quot; target=&quot;_NEW&quot;&gt;\nhttp://www.imdb.com/title/tt1606259/&lt;/a&gt;\n\n\n\n\n\n\n\n\n\nUsers: (41 votes) 1 review | Critics: 9 reviews\n\n\nAn epic 12-year journey into the brutal and secretive world of Irish Traveler bare-knuckle fighting. This film follows a history of violent feuding between rival clans.\n\n\n\n\n\n\n\n\n\n\n\n\n\n\n\n\n\n\n\n\n\nSource Used\n\n\nKNuckle 2011 NoGrp mp4\n\n\nEnjoy\n\n\nNo idea what this is so went with VODRip....Fook knows lol\n\n\n\n\n\nGreetz to IMAGiNE,Flawl3ss,DiLLoN,BDK,NOiR,TOXiC,THC,Ez,Rx,Boobyblue,TaRiQ786\n","torrent":{"xt":"urn:btih:7777cb2c34297cb124ee5c2bacab5f108ccbf338","amp;dn":"Knuckle","amp;tr":["udp%3A%2F%2Ftracker.openbittorrent.com%3A80","udp%3A%2F%2Fopen.demonii.com%3A1337","udp%3A%2F%2Ftracker.coppersurfer.tk%3A6969","udp%3A%2F%2Fexodus.desync.com%3A6969"],"infoHash":"7777cb2c34297cb124ee5c2bacab5f108ccbf338","infoHashBuffer":{"type":"Buffer","data":[119,119,203,44,52,41,124,177,36,238,92,43,172,171,95,16,140,203,243,56]},"announce":[],"urlList":[]}}